<svg xmlns="http://www.w3.org/2000/svg" xmlns:xlink="http://www.w3.org/1999/xlink" width="84" height="100" viewBox="0 0 84 100">
  <defs>
    <clipPath id="clip-path">
      <rect id="Rectangle_28" data-name="Rectangle 28" width="84" height="100" transform="translate(-0.333)" fill="#d41b3a"/>
    </clipPath>
  </defs>
  <g id="Group_34" data-name="Group 34" transform="translate(0.333 0.06)">
    <g id="Group_33" data-name="Group 33" transform="translate(0 -0.06)" clip-path="url(#clip-path)">
      <path id="Path_28" data-name="Path 28" d="M91.721,124.553c2.091-2.593,4-5.269,6.229-7.647,2.751-2.933,5.77-5.617,8.674-8.407a3.726,3.726,0,0,1,.319-.257c1.13-.865,2.261-.846,3.008.051.762.913.565,2.006-.51,2.939-1.315,1.143-2.661,2.256-3.921,3.456-5.5,5.24-10.338,10.989-13.643,17.883a30.351,30.351,0,0,0-2.833,9.017,4.874,4.874,0,0,1-.108.5,1.959,1.959,0,0,1-2.228,1.637,1.925,1.925,0,0,1-1.583-2.26,28.56,28.56,0,0,1,3.056-10.108,4.989,4.989,0,0,0-.052-5.481c-4.244-7.662-2.457-16.115,2.509-22.239,2.633-3.248,6.332-4.633,10.315-5.42,2.685-.53,5.38-1.014,8.049-1.612a15.266,15.266,0,0,0,7.18-3.77c1.253-1.166,2.924-.821,3.336.754,2.147,8.225,3.18,16.53,1.048,24.916-2.572,10.115-9.745,14.631-19.216,15.026a1.936,1.936,0,0,1-2.231-1.866c-.036-1.178.744-1.931,2.094-2,3.763-.205,7.336-1,10.347-3.422,3.417-2.748,4.955-6.522,5.682-10.674a47.643,47.643,0,0,0-.687-17.648.2.2,0,0,0-.069-.1A43.784,43.784,0,0,1,111.127,100c-3.134.836-6.324,1.512-9.527,2.035-7.963,1.3-11.21,7.334-11.88,14a14.04,14.04,0,0,0,1.551,7.712c.146.3.321.577.451.809" transform="translate(-61.728 -66.959)" fill="#d41b3a"/>
      <path id="Path_29" data-name="Path 29" d="M134.942,122.355c1.46,1.808,2.815,3.427,4.093,5.1a3.17,3.17,0,0,1,.659,1.644,1.665,1.665,0,0,1-1.261,1.681,1.914,1.914,0,0,1-2.21-.659c-1.168-1.426-2.326-2.86-3.487-4.291-1.14-1.4-2.292-2.8-3.416-4.217a1.963,1.963,0,0,1,.356-3.171q4.15-3.347,8.328-6.661c1.111-.883,2.252-.85,3,.044.781.931.567,2.055-.591,2.995-1.377,1.118-2.765,2.222-4.331,3.478.856,0,1.513.049,2.16-.007A37.458,37.458,0,0,0,150.4,46.651c-.281-.124-.569-.236-.845-.372a1.908,1.908,0,0,1-1.089-2.6,1.96,1.96,0,0,1,2.691-.918A38.554,38.554,0,0,1,162.108,49.5c10.333,9.175,15.3,20.671,14.456,34.419-1.122,18.2-14.781,33.691-32.808,37.446-2.4.5-4.883.618-7.328.9-.427.05-.861.049-1.486.083" transform="translate(-93.324 -30.899)" fill="#d41b3a"/>
      <path id="Path_30" data-name="Path 30" d="M41.7,8.443c-1.47-1.819-2.883-3.526-4.247-5.272A1.89,1.89,0,0,1,37.723.438a1.935,1.935,0,0,1,2.75.314c.07.075.134.155.2.234,2.257,2.782,4.524,5.557,6.768,8.351a1.962,1.962,0,0,1-.345,3.1q-4.19,3.377-8.405,6.724a1.993,1.993,0,0,1-3-.115c-.723-.9-.508-2.039.586-2.928a51.794,51.794,0,0,0,4.2-3.639c-1.462.136-2.938.189-4.385.421A37.439,37.439,0,0,0,26.016,84.114c.313.138.632.266.93.43a1.937,1.937,0,0,1,.91,2.6,1.853,1.853,0,0,1-2.529.874A64.846,64.846,0,0,1,17.8,83.87,40.112,40.112,0,0,1,.261,54.437C-2.233,32.671,13.438,12.381,35.169,9.132c2.119-.317,4.265-.454,6.533-.689" transform="translate(0 0.046)" fill="#d41b3a"/>
    </g>
  </g>
</svg>
