<svg xmlns="http://www.w3.org/2000/svg" xmlns:xlink="http://www.w3.org/1999/xlink" width="100" height="80" viewBox="0 0 100 80">
  <defs>
    <clipPath id="clip-path">
      <rect id="Rectangle_10" data-name="Rectangle 10" width="100" height="80" fill="none"/>
    </clipPath>
  </defs>
  <g id="Group_12" data-name="Group 12" opacity="0.44">
    <g id="Group_11" data-name="Group 11" clip-path="url(#clip-path)">
      <path id="Path_17" data-name="Path 17" d="M33.727,94.9V73.542c0-.5-.008-.993,0-1.489.047-1.922,1.036-3.252,2.637-3.291q4.413-.105,8.828-.006c1.7.035,2.69,1.367,2.694,3.473q.019,10.551.006,21.1v1.562h1.7c.017-.446.051-.923.051-1.4q.005-10.551,0-21.1c0-2.719.537-3.566,2.742-4.337,2.488-.869,4.976-1.738,7.469-2.585,2.371-.806,3.983.638,3.985,3.575q.011,12.226,0,24.452V94.91h1.705V93.417c0-9.351.025-18.7-.02-28.052a4.432,4.432,0,0,1,2.1-4.273c2.553-1.563,5.041-3.28,7.562-4.92,2.487-1.617,4.564-.17,4.568,3.218q.021,16.943.006,33.886v1.64h1.734V93.4c0-13.861.019-27.721-.024-41.581a5.326,5.326,0,0,1,1.563-4.077c2.608-2.656,5.154-5.4,7.706-8.133.99-1.061,2.058-1.526,3.319-.814,1.207.683,1.613,1.9,1.612,3.448q-.021,25.57-.009,51.139v1.607c.716,0,1.329-.006,1.942,0A1.278,1.278,0,0,1,98.925,96.4a1.355,1.355,0,0,1-1.216,1.541,6.569,6.569,0,0,1-.934.018q-45.388.02-90.776.063a2.121,2.121,0,0,1-2.288-1.743C2.647,93.144,1.5,90.042.311,86.97A4.108,4.108,0,0,1,.325,83.8,102.387,102.387,0,0,0,6.007,61.972c.28-2.024.443-4.071.681-6.31-.862,0-1.543.017-2.223,0A1.323,1.323,0,0,1,3.1,54.172,1.3,1.3,0,0,1,4.461,52.7c.721-.006,1.441,0,2.258,0,0-1.226.054-2.334-.031-3.428a1.757,1.757,0,0,0-.648-1C4.408,46.876,2.764,45.5,1.1,44.168A2.386,2.386,0,0,1,.187,42.1c.022-2.9,0-5.792.012-8.689.008-1.586.358-2,1.662-2.016,1.489-.017,2.977-.014,4.466,0,1.389.011,1.73.407,1.744,2.041.014,1.562,0,3.124,0,4.772h2.987c0-1.565,0-3.08,0-4.595,0-1.883.288-2.214,1.9-2.221q1.921-.008,3.843,0c1.676.006,1.962.36,1.964,2.418,0,1.443,0,2.886,0,4.407H21.7c0-1.66-.009-3.263,0-4.866.011-1.463.4-1.939,1.611-1.954,1.558-.02,3.116-.024,4.674,0,1.094.019,1.51.5,1.52,1.816.024,3.02.056,6.043-.032,9.059a2.968,2.968,0,0,1-.844,1.818,57.325,57.325,0,0,1-4.387,3.752,2.77,2.77,0,0,0-1.209,2.486c.02.734-.054,1.471-.093,2.368.774,0,1.458-.009,2.142,0a1.292,1.292,0,0,1,1.367,1.466,1.322,1.322,0,0,1-1.364,1.488c-.653.033-1.307.007-2.167.007.186,2.042.305,3.96.544,5.857a86.359,86.359,0,0,0,6.176,22.258,3.88,3.88,0,0,1,.025,3.255c-1.053,2.547-1.992,5.161-3.024,7.869ZM3.1,83.812H26.862c-3.525-9-6-18.221-6.4-28.139-3.649,0-7.141.013-10.634-.012-.634,0-.733.392-.771,1A98.138,98.138,0,0,1,3.72,81.9c-.2.6-.393,1.205-.623,1.912M93.052,94.936v-53.7c-.452.442-.721.687-.973.953-2.436,2.574-4.855,5.172-7.315,7.713a2.568,2.568,0,0,0-.778,1.993q.035,20.9.019,41.8c0,.4.034.8.054,1.234ZM77.2,58.338c-.461.263-.74.4-1.005.577-2.426,1.585-4.835,3.208-7.282,4.742a1.836,1.836,0,0,0-.885,1.836c.027,9.386.016,18.771.019,28.156,0,.4.031.8.051,1.268h9.1ZM61.253,94.922V68.155c-.481.136-.846.221-1.2.344-2.289.794-4.565,1.65-6.871,2.368-.842.262-1.06.713-1.055,1.706.035,7.032.018,14.064.021,21.1,0,.4.036.8.058,1.254ZM36.3,94.888h9.013V71.781H36.3ZM3.186,86.951a2.928,2.928,0,0,0,.07.547C4.091,89.807,4.909,92.126,5.8,94.4A1.19,1.19,0,0,0,6.752,95c5.461.024,10.922-.011,16.383.005.59,0,.847-.264,1.069-.869.777-2.114,1.6-4.2,2.4-6.305a8.3,8.3,0,0,0,.229-.877ZM21.534,46.3c1.759-.689,3.2-2.518,4.788-3.849a2.84,2.84,0,0,0,.418-.365.964.964,0,0,0,.26-.5c.017-2.376.011-4.752.011-7.149H24.195c0,1.669.008,3.271,0,4.872-.01,1.459-.392,1.935-1.612,1.956-1.452.025-2.905.011-4.358.006-1.658-.006-1.949-.349-1.952-2.291q0-2.267,0-4.54H13.551c0,1.671.014,3.273,0,4.874-.016,1.433-.431,1.932-1.635,1.952-1.453.024-2.906.01-4.358.006-1.683-.006-1.967-.355-1.971-2.417,0-1.467,0-2.935,0-4.431H2.69c0,2.2.027,4.26-.014,6.32a1.878,1.878,0,0,0,.743,1.73c1.421,1.1,2.772,2.33,4.2,3.417a2.93,2.93,0,0,0,1.614.593m11.334,3.1H9.309v3H20.429c.048-1.043.091-1.979.137-3" transform="translate(0 -18.026)"/>
      <path id="Path_18" data-name="Path 18" d="M148.871,3.821c-1.646.426-3.164.8-4.672,1.217a1.235,1.235,0,0,1-1.745-.979,1.479,1.479,0,0,1,1.189-1.908q3.837-1.07,7.687-2.078c.981-.256,1.491.144,1.731,1.363.608,3.1,1.188,6.2,1.767,9.305.175.939-.076,1.7-.9,1.919-.869.238-1.362-.326-1.55-1.336-.357-1.924-.729-3.845-1.153-6.076-.394.653-.665,1.1-.932,1.548-6.155,10.3-13.416,19.238-22.421,26.03A59.97,59.97,0,0,1,99.968,44.685c-4.249.609-8.553.663-12.833.966a3.709,3.709,0,0,1-.519,0,1.363,1.363,0,0,1-1.393-1.586,1.288,1.288,0,0,1,1.421-1.394c2.491-.048,4.986-.034,7.472-.209a59.746,59.746,0,0,0,33.9-13.209c8.312-6.649,15.024-15.2,20.7-24.975a3.84,3.84,0,0,0,.148-.453" transform="translate(-54.88 0)"/>
    </g>
  </g>
</svg>
