<?xml version="1.0" encoding="UTF-8"?>
<svg id="Layer_1" xmlns="http://www.w3.org/2000/svg" viewBox="0 0 595.28 595.28">
  <defs>
    <style>
      .cls-1 {
        fill: #d41b3a;
      }
    </style>
  </defs>
  <path class="cls-1" d="M253.15,314.46c7.61-9.5,14.56-19.31,22.67-28.03,10.01-10.75,21-20.59,31.57-30.81.36-.35.77-.64,1.16-.94,4.11-3.17,8.23-3.1,10.95.19,2.77,3.35,2.06,7.35-1.86,10.77-4.79,4.19-9.69,8.27-14.27,12.67-20.02,19.21-37.63,40.28-49.66,65.55-5.01,10.52-8.73,21.45-10.31,33.05-.08.62-.25,1.22-.39,1.83-1.03,4.22-4.37,6.69-8.11,6-3.88-.71-6.26-3.95-5.76-8.28,1.51-13,5.08-25.54,11.13-37.05,3.8-7.23,3.98-12.52-.19-20.09-15.45-28.09-8.94-59.07,9.13-81.52,9.59-11.9,23.05-16.98,37.55-19.87,9.77-1.94,19.58-3.72,29.3-5.91,9.9-2.24,18.66-6.81,26.13-13.82,4.56-4.27,10.64-3.01,12.14,2.76,7.82,30.15,11.58,60.59,3.82,91.32-9.36,37.08-35.47,53.63-69.95,55.07-4.81.2-7.99-2.61-8.12-6.84-.13-4.32,2.71-7.08,7.62-7.35,13.7-.75,26.7-3.67,37.66-12.54,12.44-10.07,18.04-23.91,20.68-39.12,3.77-21.71,1.74-43.26-2.5-64.69-.04-.22-.27-.41-.25-.38-6.53,2.74-12.81,6.21-19.53,8.01-11.41,3.07-23.02,5.54-34.68,7.46-28.99,4.76-40.81,26.88-43.24,51.31-.99,9.88,1.25,19.35,5.65,28.27.53,1.08,1.17,2.12,1.64,2.96Z"/>
  <path class="cls-1" d="M295.46,438.58c5.32,6.63,10.25,12.56,14.9,18.71,1.27,1.68,2.3,3.97,2.4,6.03.15,2.93-1.69,5.22-4.59,6.16-3.16,1.03-5.93.18-8.04-2.42-4.25-5.23-8.47-10.48-12.69-15.73-4.15-5.15-8.34-10.26-12.43-15.46-3.5-4.45-3.11-8.04,1.29-11.62,10.07-8.18,20.18-16.31,30.31-24.41,4.04-3.24,8.2-3.12,10.93.16,2.84,3.41,2.06,7.53-2.15,10.98-5.01,4.1-10.07,8.15-15.76,12.75,3.12,0,5.51.18,7.86-.03,60.77-5.37,110.61-49.74,123.03-109.49,12.97-62.41-20.34-127.13-78.79-153.11-1.02-.46-2.07-.86-3.07-1.36-4.13-2.06-5.68-5.8-3.96-9.55,1.68-3.69,5.6-5.11,9.8-3.36,14.62,6.09,28.07,14.18,39.87,24.73,37.61,33.63,55.71,75.77,52.62,126.16-4.08,66.72-53.8,123.49-119.42,137.26-8.74,1.83-17.77,2.26-26.67,3.31-1.56.18-3.13.18-5.41.3Z"/>
  <path class="cls-1" d="M295.77,134.47c-5.35-6.67-10.5-12.92-15.46-19.32-2.62-3.38-2.07-7.58.97-10.02,3.13-2.5,7.03-2.06,10.01,1.15.25.27.49.57.72.86,8.22,10.2,16.47,20.37,24.63,30.61,3.33,4.17,2.88,8.02-1.26,11.38-10.17,8.25-20.36,16.48-30.6,24.65-4,3.2-8.23,2.95-10.91-.42-2.63-3.32-1.85-7.47,2.13-10.73,5.11-4.18,10.28-8.29,15.27-13.34-5.32.5-10.69.69-15.96,1.54-60.2,9.7-105.66,54.97-115.45,114.83-9.88,60.37,22.95,121.28,78.79,146.18,1.14.51,2.3.98,3.39,1.58,3.68,2.03,5.05,6.04,3.31,9.54-1.66,3.36-5.62,5.07-9.21,3.2-9.26-4.83-18.89-9.23-27.38-15.22-37.32-26.33-58.7-62.53-63.86-107.88-9.08-79.78,47.97-154.15,127.07-166.06,7.71-1.16,15.52-1.66,23.78-2.53Z"/>
</svg>