<?xml version="1.0" encoding="UTF-8"?>
<svg id="Layer_1" xmlns="http://www.w3.org/2000/svg" viewBox="0 0 595.28 595.28">
  <defs>
    <style>
      .cls-1 {
        fill: #7c7c7c;
      }
    </style>
  </defs>
  <path class="cls-1" d="M286.99,405.96c0-20.18,0-39.99,0-59.8,0-1.39-.03-2.78.01-4.17.16-5.38,3.47-9.11,8.83-9.21,9.84-.2,19.7-.19,29.54-.02,5.68.1,9,3.83,9.02,9.72.04,19.69.02,39.39.02,59.08,0,1.37,0,2.75,0,4.37h5.69c.06-1.25.17-2.58.17-3.92.01-19.69,0-39.39.01-59.08,0-7.61,1.8-9.99,9.17-12.14,8.33-2.43,16.65-4.87,25-7.24,7.94-2.25,13.33,1.79,13.34,10.01.03,22.82,0,45.64,0,68.46,0,1.25,0,2.5,0,3.95h5.71v-4.18c0-26.18.08-52.36-.07-78.54-.03-5.63,1.96-9.36,7.04-11.96,8.55-4.38,16.87-9.18,25.31-13.78,8.32-4.53,15.27-.48,15.29,9.01.05,31.63.02,63.25.02,94.88,0,1.47,0,2.94,0,4.59h5.8c0-1.53,0-2.89,0-4.25,0-38.81.06-77.62-.08-116.42-.02-4.86,1.58-8.31,5.23-11.41,8.73-7.44,17.25-15.12,25.79-22.77,3.31-2.97,6.89-4.27,11.11-2.28,4.04,1.91,5.4,5.31,5.39,9.65-.05,47.73-.03,95.46-.03,143.18,0,1.36,0,2.72,0,4.5,2.4,0,4.45-.02,6.5,0,2.62.03,4.27,1.41,4.37,3.96.11,2.58-1.55,4.01-4.07,4.31-1.03.12-2.08.05-3.13.05-101.26.04-202.52.05-303.79.18-3.91,0-6.15-1.16-7.66-4.88-3.56-8.79-7.39-17.47-11.38-26.07-1.46-3.14-1.34-5.78.04-8.87,8.75-19.61,15.51-39.88,19.02-61.12.94-5.67,1.48-11.4,2.28-17.67-2.88,0-5.16.05-7.44-.01-2.69-.07-4.58-1.38-4.58-4.16,0-2.76,1.82-4.11,4.56-4.13,2.41-.02,4.82,0,7.55,0,0-3.43.18-6.54-.1-9.6-.09-1-1.23-2.12-2.17-2.79-5.46-3.91-10.96-7.76-16.55-11.49-2.17-1.45-3.06-3.24-3.04-5.8.07-8.11,0-16.22.04-24.33.03-4.44,1.2-5.6,5.56-5.65,4.98-.05,9.96-.04,14.95,0,4.65.03,5.79,1.14,5.84,5.72.05,4.37.01,8.75.01,13.36h9.99c0-4.38-.01-8.62,0-12.86.02-5.27.96-6.2,6.34-6.22,4.29-.02,8.57-.01,12.86,0,5.61.02,6.57,1.01,6.57,6.77,0,4.04,0,8.08,0,12.34h9.84c0-4.65-.03-9.13,0-13.62.04-4.1,1.32-5.43,5.39-5.47,5.21-.06,10.43-.07,15.64,0,3.66.05,5.05,1.4,5.09,5.08.08,8.46.19,16.92-.11,25.36-.06,1.76-1.4,3.96-2.83,5.09-4.71,3.74-9.63,7.24-14.68,10.51-2.69,1.74-4.15,3.73-4.05,6.96.07,2.05-.18,4.12-.31,6.63,2.59,0,4.88-.03,7.17,0,2.7.04,4.56,1.28,4.57,4.1.01,2.85-1.93,4.05-4.56,4.17-2.18.09-4.37.02-7.25.02.62,5.72,1.02,11.09,1.82,16.4,3.3,21.95,10.89,42.52,20.67,62.32,1.59,3.23,1.68,5.87.08,9.11-3.52,7.13-6.67,14.45-10.12,22.03h23.7ZM184.49,374.92h79.53c-11.8-25.21-20.08-51.02-21.42-78.79-12.21,0-23.9.04-35.59-.03-2.12-.01-2.45,1.1-2.58,2.79-1.85,24.59-8.71,47.92-17.86,70.67-.68,1.68-1.31,3.37-2.08,5.35ZM485.52,406.06v-150.34c-1.51,1.24-2.41,1.92-3.26,2.67-8.15,7.21-16.25,14.48-24.48,21.6-1.82,1.57-2.61,3.13-2.6,5.58.08,39.01.05,78.02.06,117.04,0,1.11.11,2.23.18,3.46h30.1ZM432.49,303.59c-1.54.74-2.48,1.13-3.36,1.61-8.12,4.44-16.18,8.98-24.37,13.28-2.3,1.2-2.97,2.64-2.96,5.14.09,26.28.05,52.56.06,78.83,0,1.13.1,2.25.17,3.55h30.47v-102.42ZM379.11,406.02v-74.95c-1.61.38-2.83.62-4.02.96-7.66,2.22-15.28,4.62-22.99,6.63-2.82.73-3.55,2-3.53,4.78.12,19.69.06,39.38.07,59.06,0,1.12.12,2.24.2,3.51h30.28ZM295.62,341.23v64.7h30.16v-64.7h-30.16ZM184.79,383.7c.1.67.07,1.15.23,1.53,2.79,6.47,5.53,12.96,8.52,19.33.41.88,2.09,1.66,3.18,1.66,18.27.07,36.55-.03,54.83.01,1.97,0,2.83-.74,3.58-2.43,2.6-5.92,5.37-11.77,8.04-17.65.35-.77.51-1.62.77-2.45h-79.14ZM183.12,236.63c0,6.15.09,11.93-.05,17.7-.05,2.2.58,3.61,2.49,4.84,4.75,3.08,9.28,6.52,14.05,9.57,1.54.98,3.57,1.62,5.4,1.66,7.4.18,14.81.1,22.22.07,6.36-.03,13.19,1.3,18.95-.58,5.89-1.93,10.73-7.05,16.02-10.78.47-.33,1.01-.61,1.4-1.02.38-.39.86-.93.87-1.4.06-6.65.04-13.31.04-20.02h-9.42c0,4.67.03,9.16,0,13.64-.03,4.08-1.31,5.42-5.39,5.48-4.86.07-9.72.03-14.58.02-5.55-.02-6.52-.98-6.53-6.41,0-4.23,0-8.47,0-12.71h-9.1c0,4.68.05,9.16-.01,13.65-.05,4.01-1.44,5.41-5.47,5.47-4.86.07-9.72.03-14.58.01-5.63-.02-6.58-.99-6.6-6.77-.01-4.11,0-8.22,0-12.41h-9.68ZM242.95,279.09h-37.67v8.39h37.21c.16-2.92.3-5.54.46-8.39Z"/>
  <path class="cls-1" d="M488.67,201.42c-5.51,1.19-10.59,2.23-15.63,3.41-2.76.64-4.9.12-5.84-2.74-.83-2.53.68-4.57,3.98-5.34,8.56-2,17.13-3.94,25.72-5.82,3.28-.72,4.99.4,5.79,3.82,2.04,8.67,3.98,17.36,5.91,26.05.59,2.63-.25,4.75-2.99,5.37-2.91.67-4.56-.91-5.19-3.74-1.19-5.39-2.44-10.76-3.86-17.01-1.32,1.83-2.22,3.08-3.12,4.33-20.6,28.84-44.9,53.86-75.03,72.88-28.64,18.07-59.84,29.18-93.4,33.2-14.22,1.7-28.63,1.86-42.95,2.71-.58.03-1.16.02-1.74-.01-2.81-.17-4.79-1.43-4.66-4.44.12-2.82,2.05-3.86,4.76-3.9,8.34-.13,16.69-.09,25.01-.59,41.03-2.43,79.12-14,113.46-36.98,27.82-18.62,50.28-42.56,69.28-69.93.12-.17.16-.4.5-1.27Z"/>
</svg>