<?xml version="1.0" encoding="UTF-8"?>
<svg id="Layer_1" xmlns="http://www.w3.org/2000/svg" viewBox="0 0 595.28 595.28">
  <defs>
    <style>
      .cls-1 {
        fill: #d41b3a;
      }
    </style>
  </defs>
  <path class="cls-1" d="M366.87,254.63c-8.89-.95-10.99-2.17-11.09-6.17-.1-4.16,2.08-5.49,11.09-6.51,0-1.37,0-2.81,0-4.26,0-20.58-.06-41.16.02-61.73.06-15.58,9.12-27,23.55-29.81,2.18-.43,4.46-.45,6.7-.45,19.83-.03,39.66-.05,59.49.02,2.3,0,3.77-.46,5.11-2.63,3.76-6.09,10.93-8.62,17.57-6.66,6.73,1.99,11.36,8.04,11.46,14.97.1,6.93-4.41,13.17-11.04,15.29-6.8,2.17-14.03-.28-17.96-6.45-1.24-1.94-2.48-2.61-4.74-2.6-20.33.09-40.66.02-60.99.07-9.64.02-16.88,6.59-16.99,16.19-.25,22.2-.09,44.4-.09,66.6,0,.47.15.95.3,1.81,1.26,0,2.47,0,3.68,0,24.57,0,49.14-.02,73.71.04,2.29,0,3.76-.44,5.1-2.61,3.78-6.09,10.91-8.57,17.58-6.58,6.77,2.03,11.35,8.04,11.43,14.98.08,7.08-4.55,13.29-11.44,15.35-6.64,1.98-13.55-.67-17.72-6.51-.85-1.19-2.54-2.55-3.85-2.55-25.69-.15-51.38-.1-77.07-.09-.36,0-.72.11-1.52.23-.08,1.25-.22,2.55-.22,3.85-.01,20.58-.03,41.16,0,61.73.02,12.39,6.52,18.77,19.01,18.77,19.58,0,39.16-.03,58.74.04,2.29,0,3.76-.45,5.11-2.61,3.87-6.17,11.16-8.6,17.97-6.42,6.58,2.1,11.1,8.4,10.99,15.33-.11,6.9-4.81,13.03-11.49,14.96-6.63,1.93-13.83-.64-17.56-6.73-1.35-2.2-2.86-2.6-5.13-2.59-19.7.06-39.41.05-59.11.03-18.47-.02-30.49-11.87-30.58-30.33-.1-20.45-.02-40.91-.02-61.36,0-1.48,0-2.96,0-4.61Z"/>
  <path class="cls-1" d="M341.78,338.82c0,4.37,0,8.73,0,13.1,0,3.23-1.42,5.42-4.48,6.6-4.41,1.7-9.79,2.47-12.89,5.53-2.98,2.93-2.96,8.67-5.39,12.45-4.13,6.42-3.61,12-.1,18.52,4.16,7.71,3.7,7.96-2.47,14.13-5.03,5.03-10.15,9.97-15.04,15.11-2.9,3.05-6.08,4.07-9.66,1.82-7.64-4.79-15.14-5.99-22.91-.31-1.36.99-3.16,1.68-4.84,1.89-5.23.67-7.19,4.13-8.79,8.63-4.55,12.8-3.48,11.17-16.42,11.24-6.36.03-12.72-.06-19.08.03-3.31.04-5.42-1.42-6.59-4.45-1.66-4.3-2.35-9.53-5.3-12.6-2.8-2.91-8.39-2.93-12.01-5.33-6.88-4.55-13-3.85-19.93-.05-6.72,3.69-7.4,3.15-12.91-2.36-5.29-5.29-10.52-10.65-15.89-15.86-2.79-2.71-3.72-5.68-1.59-9.02,4.99-7.84,4.53-14.92.69-23.72-3.47-7.95-7.46-12.81-15.69-15.03-5.93-1.61-6.46-3.07-6.46-9.24,0-7.86.1-15.72-.04-23.57-.07-3.93,1.49-6.72,5.25-7.55,9.14-2.01,15.38-6.74,16.81-16.49.02-.12.09-.24.17-.33,5.44-7.09,3.97-13.91-.13-21.14-3.1-5.47-2.49-6.69,1.91-11.1,5.55-5.56,11.17-11.05,16.64-16.7,2.71-2.8,5.57-3.4,9.09-1.76,4.74,2.21,9.57,4.22,14.33,6.39,4.15,1.9,5.59,4.89,4.14,8.28-1.51,3.51-4.82,4.48-9.16,2.62-2.98-1.27-5.99-2.49-8.87-3.95-1.91-.97-3.23-1.04-4.84.72-3.27,3.59-6.91,6.85-10.2,10.43-.68.74-.98,2.46-.63,3.43,1.24,3.38,3.25,6.52,4.18,9.97.61,2.27.43,5.12-.39,7.35-2.8,7.56-5.89,15.02-9.22,22.36-.94,2.06-2.75,4.12-4.7,5.24-2.98,1.72-6.4,2.73-9.7,3.85-1.91.65-2.77,1.59-2.69,3.75.17,4.73-.1,9.49.16,14.21.07,1.21,1.27,3.16,2.26,3.39,9.94,2.27,15.87,7.85,17.76,18.26.81,4.49,3.69,8.67,5.97,12.8,1.58,2.87,1.95,5.45.55,8.48-1.76,3.81-3.21,7.75-4.8,11.64,4.19,4.26,8.34,8.58,12.65,12.71.52.5,2.09.28,2.99-.07,3.24-1.28,6.46-2.65,9.58-4.19,2.75-1.35,5.11-.83,7.8.37,7.25,3.23,14.72,5.95,21.94,9.26,2.15.99,3.74,3.22,5.57,4.89.08.07.09.23.14.34,1.53,3.81,2.05,9.24,4.86,10.99,3.19,1.98,8.42.67,12.77.77,1.25.03,2.51-.11,3.74.03,2.06.24,3.16-.53,3.82-2.55,1.04-3.19,2.48-6.25,3.56-9.43.98-2.9,3.03-4.21,5.78-5.27,7.41-2.85,14.75-5.89,22-9.12,2.58-1.15,4.89-1.69,7.45-.32.44.23.92.38,1.38.56,3.55,1.43,7.42,4.46,10.56,3.83,3.18-.64,5.68-4.85,8.41-7.57q5.4-5.37,2.33-12.3c-.6-1.37-1.09-2.8-1.82-4.1-1.76-3.16-1.19-5.94.34-9.16,3.2-6.72,6.1-13.61,8.57-20.62,1.2-3.4,2.83-5.6,6.25-6.69,2.84-.9,5.52-2.33,8.38-3.16,2.41-.7,2.97-2.04,2.88-4.36-.17-4.36-.17-8.73,0-13.09.09-2.33-.5-3.76-2.9-4.37-1.68-.43-3.31-1.12-4.89-1.85-3.29-1.53-4.62-4.56-3.46-7.67,1.15-3.08,4.22-4.62,7.61-3.48,3.89,1.31,7.7,2.87,11.52,4.38,2.92,1.15,4.09,3.44,4.08,6.48-.02,4.37,0,8.73,0,13.1Z"/>
  <path class="cls-1" d="M334.77,207.98c-1.19,2.84-2.11,5.41-3.34,7.83-1.16,2.28-1.53,4.39.08,6.56.07.1.15.21.18.33,1.92,6.88,5.2,12.24,13.01,13.93,1.51.33,3.15,3.79,3.32,5.92.45,5.82.14,11.71.16,17.57.01,3.44-1.58,5.95-4.86,6.66-5.86,1.27-8.45,4.96-10.71,10.34-2.05,4.89-2.28,8.78.39,13.13,2.24,3.66,1.36,6.76-1.72,9.64-3.91,3.66-7.66,7.5-11.38,11.36-2.48,2.57-5.39,3.51-8.39,1.57-5.18-3.33-9.78-2.4-15.21-.12-4.59,1.92-7.21,4.31-8.62,8.99-1.57,5.23-3.1,5.99-8.46,6-5.36.01-10.72-.05-16.08.02-3.44.04-5.96-1.38-6.73-4.71-1.36-5.9-5.03-8.69-10.6-10.92-4.78-1.92-8.41-2.02-12.8.34-4.58,2.45-6.23,1.9-9.92-1.76-3.72-3.69-7.36-7.46-11.14-11.07-2.69-2.57-3.62-5.52-1.67-8.72,2.97-4.89,2.56-9.21.31-14.52-2.09-4.94-4.62-8.08-9.75-9.32-3.94-.95-5.65-3.68-5.56-7.74.11-5.36.1-10.72,0-16.08-.07-3.89,1.54-6.69,5.33-7.5,5.61-1.21,8.04-4.78,10.16-9.89,2.03-4.9,2.64-8.94-.22-13.49-2.26-3.59-1.36-6.77,1.74-9.65,3.92-3.65,7.66-7.5,11.39-11.35,2.49-2.58,5.4-3.44,8.41-1.53,5.18,3.29,9.76,2.38,15.22.13,4.65-1.92,7.18-4.39,8.61-9.02,1.61-5.24,3.07-5.97,8.46-5.98,5.36,0,10.72.06,16.08-.02,3.46-.06,5.96,1.4,6.73,4.7,1.37,5.9,4.99,8.73,10.59,10.92,4.76,1.86,8.4,2.1,12.8-.33,4.47-2.47,6.27-1.87,9.92,1.76,3.8,3.78,7.65,7.51,11.33,11.41,1.22,1.29,1.96,3.03,2.97,4.63ZM277.11,315.68c.66-1.63,1.39-2.97,1.75-4.4,1.15-4.62,3.99-7.05,8.67-8.1,3.35-.75,6.74-2.11,9.62-3.97,4.32-2.79,8.27-2.83,12.55-.28,1.14.68,3.11,1.72,3.7,1.27,2.56-1.94,5.04-4.15,6.91-6.72.63-.86-.31-3.29-1.1-4.66-2.36-4.1-2.28-7.8.33-11.86,1.79-2.79,3.33-6,3.94-9.22,1.05-5.54,4.1-8.52,9.36-9.79,1.12-.27,2.9-1.09,2.97-1.8.32-3.2.57-6.53-.07-9.63-.23-1.13-2.91-2.03-4.62-2.52-4.03-1.14-6.12-3.64-7.23-7.67-1.05-3.8-2.51-7.62-4.52-11-2.31-3.89-2.54-7.34-.29-11.19.8-1.36,2.09-3.6,1.57-4.36-1.78-2.64-4.08-5.03-6.6-7-.77-.6-3.06.15-4.31.89-4.48,2.64-8.6,2.53-12.88-.5-1.79-1.27-3.97-2.39-6.11-2.7-7.69-1.12-11.72-5.75-13.42-12.94-.04-.18-.34-.31-.69-.62-1.43,0-3.08.21-4.66-.04-4.24-.68-6.74.77-7.62,5.16-.82,4.08-3.57,6.07-7.65,7.17-4.04,1.08-7.96,2.91-11.66,4.91-3.29,1.78-6.17,1.94-9.53.31-5.43-2.62-5.33-2.29-9.93,1.83-2.71,2.44-3.22,4.61-1.29,7.61,2.57,3.98,2.28,7.77-.35,11.82-1.8,2.78-3.28,6.01-3.91,9.23-1.05,5.34-3.93,8.34-9.04,9.65-1.26.32-3.28,1.1-3.39,1.88-.42,3.06-.64,6.29-.02,9.28.24,1.18,2.76,2.24,4.42,2.7,4.49,1.23,6.68,4.05,7.85,8.49,1,3.8,2.67,7.53,4.63,10.96,1.95,3.41,2.16,6.45.34,9.85-.87,1.62-2.44,4.06-1.85,5.04,1.61,2.7,4,5.06,6.49,7.04.76.6,2.94-.27,4.32-.83,3.22-1.31,6.14-3.04,9.91-1.21,4.9,2.39,10.13,4.08,15.05,6.44,1.85.89,4.28,2.57,4.63,4.27,1.4,6.77,5.52,8.29,11.55,7.23.6-.11,1.23-.01,2.18-.01Z"/>
  <path class="cls-1" d="M178.42,334.83c.13-11.91,6-25.33,17.6-36.22,3.51-3.29,7.33-3.5,9.83-.65,2.37,2.71,1.71,6.19-1.65,9.46-13.27,12.95-17.35,28.5-11.11,45.83,6.26,17.39,19.57,26.66,37.94,28.02,22.28,1.64,42.97-16.93,44.23-39.26.06-1.12.03-2.25.17-3.36.49-3.8,3.05-6.05,6.5-5.79,3.25.25,5.43,2.67,5.42,6.4-.05,14.24-5.1,26.56-14.77,36.92-15.24,16.32-39.17,21.6-59.78,13.35-20.86-8.35-34.39-28.29-34.38-54.69Z"/>
  <path class="cls-1" d="M271.82,212.12c21.7.04,39.26,17.59,39.23,39.22-.03,21.6-17.69,39.17-39.33,39.15-21.67-.02-39.19-17.58-39.17-39.25.02-21.68,17.56-39.15,39.27-39.12ZM271.61,224.16c-14.98.06-27.05,12.15-27.06,27.11,0,15.1,12.26,27.27,27.38,27.18,14.95-.09,27.09-12.24,27.1-27.13.01-15.04-12.29-27.22-27.43-27.15Z"/>
</svg>