<?xml version="1.0" encoding="UTF-8"?>
<svg id="Layer_1" xmlns="http://www.w3.org/2000/svg" viewBox="0 0 595.28 595.28">
  <defs>
    <style>
      .cls-1 {
        fill: #d41b3a;
      }
    </style>
  </defs>
  <path class="cls-1" d="M149.51,382.61c0-1.47,0-2.57,0-3.66,0-12.77-.01-25.55,0-38.32.01-9.44,5.63-15.03,15.07-15.05,7.36-.02,14.72-.01,22.08,0,9.67.01,15.14,5.47,15.17,15.22.04,12.67,0,25.34,0,38.01,0,1.11,0,2.21,0,3.55h22.51c.06-1.22.17-2.49.17-3.77,0-38.53.02-77.05-.01-115.58,0-4.35.83-8.31,4-11.52,2.98-3.02,6.66-4.22,10.82-4.21,7.36.01,14.72-.01,22.08,0,9.79.02,15.41,5.62,15.42,15.42.02,38.53,0,77.05,0,115.58,0,1.3,0,2.61,0,4.09h22.69c0-1.28,0-2.47,0-3.66,0-26.26,0-52.53,0-78.79,0-10.51,5.35-15.88,15.81-15.9,7.05-.01,14.1-.03,21.16,0,9.59.05,15.26,5.72,15.27,15.28.02,26.47,0,52.93,0,79.4,0,1.19,0,2.38,0,3.72h22.69v-4c0-49.46,0-98.92,0-148.38,0-7.5,3.75-12.72,10.3-14.46.88-.23,1.81-.38,2.71-.39,8.69-.03,17.38-.14,26.06.02,7.03.13,12.67,5.88,13.08,12.96.07,1.22.03,2.45.03,3.68,0,48.85,0,97.69,0,146.54v4.18c2.71,0,5.32-.04,7.93,0,3.32.06,5.3,1.85,5.24,4.67-.06,2.65-2.04,4.4-5.14,4.54-.82.03-1.64,0-2.45,0-96.18,0-192.35,0-288.53,0-1.02,0-2.05.06-3.06-.05-2.64-.28-4.43-2.21-4.4-4.64.03-2.45,1.84-4.37,4.5-4.49,2.75-.12,5.5-.03,8.77-.03ZM417.28,382.51c.07-.74.16-1.22.16-1.71,0-50.38.01-100.76,0-151.13,0-3.59-1.71-5.26-5.27-5.28-7.36-.05-14.72-.02-22.08-.01-5.22,0-6.47,1.26-6.47,6.5,0,49.46,0,98.92,0,148.38,0,1.07.11,2.14.17,3.26h33.5ZM267.33,382.41c.07-1.06.17-1.96.17-2.86,0-38.93.01-77.86,0-116.79,0-4.88-1.51-6.3-6.51-6.32-6.85-.02-13.69-.01-20.54,0-5.47,0-6.85,1.41-6.85,6.94,0,38.62,0,77.25,0,115.87,0,1,.09,1.99.14,3.16h33.59ZM342.39,382.39c.07-.79.14-1.2.14-1.6,0-27.28.02-54.55,0-81.83,0-4.05-1.74-5.69-5.89-5.72-7.05-.04-14.1-.02-21.15-.01-5.56,0-6.86,1.29-6.86,6.87,0,26.36,0,52.71,0,79.07,0,1.07.14,2.14.22,3.22h33.54ZM192.27,382.51c.11-.64.24-1.03.24-1.42.01-13.79.05-27.58,0-41.37-.01-3.36-1.72-4.94-5.23-4.97-7.46-.05-14.92-.03-22.37-.02-4.74.01-6.2,1.48-6.21,6.23-.01,12.87,0,25.74,0,38.61,0,.97.08,1.94.13,2.93h33.45Z"/>
  <path class="cls-1" d="M272.77,187.56c12.19,9.03,24.23,17.96,36.26,26.88,9.18-7.4,18.76-8.48,29.29-2.85,16.52-18.19,33.11-36.45,50.17-55.24-6.92.94-13.06,1.8-19.2,2.59-3.65.47-5.85-.87-6.3-3.68-.44-2.73,1.39-4.82,4.98-5.35,10.41-1.52,20.82-2.98,31.25-4.4,3.66-.5,6.25,1.99,5.76,5.65-1.41,10.52-2.91,21.03-4.47,31.54-.5,3.38-2.58,5.16-5.2,4.81-2.93-.39-4.32-2.78-3.81-6.49.68-4.96,1.35-9.91,2.01-14.87.04-.28-.05-.58-.15-1.51-16.27,17.9-32.24,35.46-48.3,53.13,3.92,5.91,5.82,12.17,4.42,19.2-1.08,5.4-3.6,9.95-7.67,13.63-8.18,7.4-20.24,8.35-29.53,2.38-10.16-6.53-13.26-17.21-8.91-31.28-11.96-8.88-24-17.81-36.19-26.86-4.69,3.74-9.83,6.7-15.89,6.24-4.17-.31-8.32-1.59-12.34-2.88-1.65-.53-2.55-.82-3.91.55-12.49,12.65-25.05,25.25-37.65,37.8-1.32,1.31-1.41,2.23-.53,3.89,4.97,9.4,4.41,18.62-2.13,26.97-6.31,8.06-14.94,10.96-24.87,8.55-10.22-2.48-16.47-9.3-18.23-19.63-1.63-9.55,1.65-17.63,9.41-23.47,7.76-5.83,16.3-6.47,25.17-2.53.93.41,1.81.94,2.41,1.25,13.86-13.73,27.63-27.37,41.56-41.17-3.6-5.82-5.02-12.24-3.36-19.15,1.26-5.22,3.98-9.58,8.09-13.06,8.23-6.98,20.33-7.63,29.35-1.57,9.83,6.6,12.89,17.52,8.48,30.93ZM340.81,232.41c-.01-8.35-6.86-15.22-15.2-15.26-8.29-.03-15.25,6.84-15.35,15.16-.09,8.39,6.97,15.46,15.4,15.4,8.35-.06,15.16-6.94,15.15-15.3ZM250.57,192.04c8.41,0,15.25-6.74,15.32-15.11.06-8.3-6.78-15.23-15.14-15.34-8.46-.11-15.44,6.82-15.41,15.32.03,8.39,6.81,15.13,15.24,15.13ZM175.69,267.52c8.43-.01,15.21-6.75,15.24-15.15.03-8.37-6.74-15.18-15.16-15.24-8.59-.06-15.37,6.7-15.33,15.3.04,8.42,6.78,15.1,15.24,15.09Z"/>
</svg>